<mxfile host="app.diagrams.net" modified="2022-04-27T12:26:26.748Z" agent="5.0 (Macintosh)" etag="AWxTEzf0HU0vRbnoOBDW" version="17.4.6" type="github">
  <diagram id="bNzipRwkta9MeBwiPbgG" name="Page-1">
    <mxGraphModel dx="946" dy="547" grid="1" gridSize="10" guides="1" tooltips="1" connect="1" arrows="1" fold="1" page="1" pageScale="1" pageWidth="827" pageHeight="1169" math="0" shadow="0">
      <root>
        <mxCell id="0" />
        <mxCell id="1" parent="0" />
        <mxCell id="lk4psk_2WtwCLvVxGfQ_-19" value="Saving Account" style="ellipse;whiteSpace=wrap;html=1;aspect=fixed;" vertex="1" parent="1">
          <mxGeometry x="230" y="320" width="60" height="60" as="geometry" />
        </mxCell>
      </root>
    </mxGraphModel>
  </diagram>
</mxfile>
